<svg width="147" height="48" viewBox="0 0 147 48" fill="none" xmlns="http://www.w3.org/2000/svg">
<g clip-path="url(#clip0_703_13594)">
<path d="M134.92 -8.81406e-05H12.18C11.7326 -8.81406e-05 11.2905 -8.81405e-05 10.8443 0.00231186C10.4708 0.00471186 10.1002 0.0116839 9.72311 0.0175519C8.90384 0.027034 8.0865 0.0979234 7.27819 0.229604C6.47101 0.364151 5.68912 0.617811 4.95896 0.982004C4.22969 1.34928 3.56334 1.82651 2.98407 2.3964C2.40177 2.96468 1.91637 3.62153 1.54655 4.3417C1.17571 5.06044 0.918561 5.83064 0.783998 6.62569C0.648155 7.41973 0.575057 8.22294 0.565359 9.02809C0.554037 9.39601 0.552841 9.76515 0.546875 10.1331V37.8702C0.552841 38.2428 0.554037 38.6038 0.565359 38.9765C0.57506 39.7816 0.648158 40.5848 0.783998 41.3788C0.91819 42.1743 1.17535 42.945 1.54655 43.664C1.9162 44.3818 2.40167 45.036 2.98407 45.6011C3.56114 46.1735 4.22793 46.6511 4.95896 47.0156C5.68912 47.3807 6.47092 47.6359 7.27819 47.7725C8.08664 47.9031 8.9039 47.9741 9.72311 47.9847C10.1002 47.9928 10.4708 47.9975 10.8443 47.9975C11.2905 47.9999 11.7326 47.9999 12.18 47.9999H134.92C135.359 47.9999 135.804 47.9999 136.243 47.9975C136.615 47.9975 136.996 47.9928 137.368 47.9847C138.185 47.9746 139.001 47.9037 139.808 47.7725C140.618 47.6349 141.402 47.3798 142.136 47.0156C142.866 46.6509 143.533 46.1733 144.109 45.6011C144.69 45.0338 145.177 44.3801 145.551 43.664C145.919 42.9444 146.174 42.1739 146.306 41.3788C146.442 40.5847 146.518 39.7817 146.533 38.9765C146.537 38.6038 146.537 38.2428 146.537 37.8702C146.547 37.4343 146.547 37.0007 146.547 36.5577V11.4433C146.547 11.0038 146.547 10.5679 146.537 10.1331C146.537 9.76515 146.537 9.39601 146.533 9.02804C146.518 8.22282 146.442 7.4198 146.306 6.62564C146.174 5.83105 145.919 5.06092 145.551 4.34166C144.798 2.89815 143.603 1.72314 142.136 0.981896C141.402 0.618593 140.618 0.365 139.808 0.229496C139.001 0.0972352 138.185 0.0263212 137.368 0.0173839C136.996 0.0115279 136.615 0.00449586 136.243 0.00215586C135.804 -0.000244141 135.359 -0.000244141 134.92 -0.000244141V-8.81406e-05Z" fill="#A6A6A6"/>
<path d="M10.8515 46.9501C10.4798 46.9501 10.117 46.9454 9.74822 46.9372C8.98418 46.9274 8.22193 46.862 7.46771 46.7415C6.76444 46.6224 6.08317 46.4008 5.44635 46.084C4.81538 45.7699 4.23988 45.358 3.7419 44.8641C3.23671 44.376 2.81612 43.8099 2.49679 43.1883C2.17394 42.5626 1.95052 41.8919 1.83429 41.1996C1.70877 40.4558 1.64086 39.7036 1.63114 38.9496C1.62341 38.6966 1.61328 37.8539 1.61328 37.8539V10.1333C1.61328 10.1333 1.62407 9.30357 1.6312 9.05981C1.64051 8.30703 1.70802 7.55603 1.83316 6.81332C1.94961 6.11915 2.17321 5.44655 2.49623 4.8188C2.81438 4.19758 3.23264 3.63108 3.73478 3.14126C4.23636 2.64679 4.81371 2.23277 5.44575 1.9143C6.08111 1.59856 6.7611 1.37853 7.46294 1.26157C8.21963 1.13985 8.98453 1.07404 9.75122 1.0647L10.8521 1.05005H136.238L137.352 1.06529C138.112 1.07417 138.87 1.13939 139.62 1.2604C140.329 1.37882 141.016 1.60039 141.658 1.91782C142.925 2.55963 143.955 3.57504 144.605 4.82173C144.923 5.44514 145.143 6.11226 145.258 6.80044C145.384 7.54924 145.455 8.30614 145.47 9.06509C145.473 9.40493 145.473 9.76997 145.473 10.1333C145.483 10.5833 145.483 11.0116 145.483 11.4434V36.5578C145.483 36.9938 145.483 37.4192 145.473 37.8481C145.473 38.2383 145.473 38.5958 145.469 38.9637C145.454 39.7091 145.385 40.4525 145.26 41.1879C145.146 41.8852 144.924 42.5611 144.601 43.1919C144.28 43.8068 143.861 44.368 143.362 44.8547C142.864 45.3513 142.287 45.7656 141.655 46.0817C141.014 46.4009 140.328 46.6233 139.62 46.7415C138.865 46.8626 138.103 46.9281 137.339 46.9372C136.982 46.9454 136.608 46.9501 136.244 46.9501L134.922 46.9524L10.8515 46.9501Z" fill="black"/>
<path d="M30.7668 24.3615C30.7799 23.3599 31.0504 22.3779 31.5531 21.5067C32.0559 20.6356 32.7744 19.9037 33.642 19.379C33.0909 18.6049 32.3638 17.9677 31.5185 17.5183C30.6732 17.0688 29.7329 16.8194 28.7725 16.7898C26.7237 16.5783 24.7374 17.9956 23.6934 17.9956C22.6292 17.9956 21.0217 16.8108 19.2907 16.8459C18.1711 16.8814 17.0799 17.2017 16.1235 17.7753C15.1671 18.349 14.3781 19.1566 13.8334 20.1193C11.4738 24.1374 13.2338 30.0427 15.4942 33.2906C16.6251 34.881 17.9468 36.6576 19.6762 36.5946C21.3685 36.5255 22.0005 35.5332 24.0433 35.5332C26.0672 35.5332 26.6602 36.5946 28.4246 36.5545C30.2406 36.5255 31.3847 34.957 32.4759 33.3515C33.2885 32.2183 33.9137 30.9658 34.3285 29.6405C33.2735 29.2016 32.3732 28.467 31.7398 27.5283C31.1065 26.5895 30.7681 25.4882 30.7668 24.3615Z" fill="white"/>
<path d="M27.4337 14.6529C28.4239 13.4838 28.9117 11.9812 28.7935 10.4641C27.2808 10.6204 25.8835 11.3314 24.88 12.4556C24.3894 13.0048 24.0136 13.6438 23.7742 14.3359C23.5347 15.028 23.4363 15.7598 23.4846 16.4893C24.2412 16.497 24.9897 16.3357 25.6738 16.0176C26.3579 15.6995 26.9596 15.2328 27.4337 14.6529Z" fill="white"/>
<path d="M52.157 32.568H46.3818L44.9949 36.5957H42.5488L48.0189 21.6941H50.5604L56.0305 36.5957H53.5427L52.157 32.568ZM46.98 30.7094H51.5577L49.301 24.1726H49.2379L46.98 30.7094Z" fill="white"/>
<path d="M67.8428 31.1642C67.8428 34.5404 66.0055 36.7095 63.2329 36.7095C62.5306 36.7457 61.8321 36.5865 61.2174 36.2504C60.6027 35.9142 60.0968 35.4146 59.7574 34.8087H59.7049V40.19H57.4375V25.7314H59.6323V27.5384H59.674C60.0289 26.9355 60.5435 26.4384 61.1628 26.1002C61.7822 25.762 62.4832 25.5953 63.1912 25.6177C65.9947 25.6177 67.8428 27.7974 67.8428 31.1642ZM65.5122 31.1642C65.5122 28.9646 64.3565 27.5185 62.5931 27.5185C60.8607 27.5185 59.6954 28.9951 59.6954 31.1642C59.6954 33.3533 60.8607 34.8193 62.5931 34.8193C64.3565 34.8193 65.5122 33.3838 65.5122 31.1642Z" fill="white"/>
<path d="M80.0029 31.1642C80.0029 34.5404 78.1657 36.7095 75.3931 36.7095C74.6907 36.7456 73.9922 36.5865 73.3776 36.2504C72.7629 35.9142 72.2569 35.4146 71.9175 34.8087H71.8651V40.19H69.5977V25.7314H71.7924V27.5384H71.8341C72.1891 26.9355 72.7036 26.4384 73.323 26.1002C73.9423 25.762 74.6433 25.5953 75.3513 25.6177C78.1549 25.6177 80.0029 27.7974 80.0029 31.1642ZM77.6724 31.1642C77.6724 28.9646 76.5166 27.5185 74.7532 27.5185C73.0208 27.5185 71.8556 28.9951 71.8556 31.1642C71.8556 33.3533 73.0208 34.8193 74.7532 34.8193C76.5167 34.8193 77.6724 33.3837 77.6724 31.1642H77.6724Z" fill="white"/>
<path d="M88.0359 32.4429C88.2039 33.9207 89.6635 34.8909 91.658 34.8909C93.5692 34.8909 94.9441 33.9206 94.9441 32.5882C94.9441 31.4316 94.1149 30.739 92.1513 30.2644L90.1877 29.7991C87.4056 29.1382 86.114 27.8585 86.114 25.7819C86.114 23.2108 88.3922 21.4448 91.627 21.4448C94.8285 21.4448 97.0233 23.2108 97.0971 25.7819H94.8083C94.6713 24.2948 93.4214 23.3972 91.5948 23.3972C89.7683 23.3972 88.5184 24.3054 88.5184 25.6273C88.5184 26.6808 89.3167 27.3007 91.2696 27.7753L92.9388 28.1784C96.0474 28.9014 97.339 30.1296 97.339 32.3092C97.339 35.0971 95.0811 36.8432 91.49 36.8432C88.13 36.8432 85.8614 35.1381 85.7148 32.4428L88.0359 32.4429Z" fill="white"/>
<path d="M102.234 23.1589V25.73H104.334V27.496H102.234V33.4855C102.234 34.416 102.654 34.8496 103.578 34.8496C103.827 34.8453 104.076 34.8281 104.324 34.798V36.5534C103.909 36.6297 103.487 36.6643 103.064 36.6566C100.828 36.6566 99.9557 35.8304 99.9557 33.7233V27.496H98.3496V25.73H99.9557V23.1589H102.234Z" fill="white"/>
<path d="M105.551 31.1631C105.551 27.7447 107.598 25.5967 110.79 25.5967C113.992 25.5967 116.03 27.7447 116.03 31.1631C116.03 34.5908 114.003 36.7295 110.79 36.7295C107.577 36.7295 105.551 34.5908 105.551 31.1631ZM113.72 31.1631C113.72 28.8182 112.627 27.4342 110.79 27.4342C108.952 27.4342 107.861 28.8287 107.861 31.1631C107.861 33.5174 108.952 34.8908 110.79 34.8908C112.627 34.8908 113.72 33.5174 113.72 31.1631H113.72Z" fill="white"/>
<path d="M117.9 25.7313H120.063V27.5805H120.115C120.262 27.003 120.606 26.4926 121.09 26.1351C121.573 25.7776 122.168 25.5949 122.772 25.6176C123.034 25.6167 123.294 25.6446 123.549 25.7008V27.7868C123.219 27.6876 122.875 27.6421 122.531 27.652C122.201 27.6389 121.873 27.696 121.568 27.8194C121.263 27.9429 120.989 28.1298 120.765 28.3672C120.54 28.6047 120.371 28.8872 120.268 29.1952C120.165 29.5032 120.13 29.8294 120.168 30.1516V36.5957H117.9L117.9 25.7313Z" fill="white"/>
<path d="M134.003 33.4037C133.698 35.376 131.746 36.7295 129.247 36.7295C126.034 36.7295 124.039 34.6119 124.039 31.2146C124.039 27.8068 126.044 25.5967 129.152 25.5967C132.208 25.5967 134.13 27.6615 134.13 30.9557V31.7197H126.328V31.8545C126.292 32.2543 126.343 32.6571 126.477 33.0361C126.612 33.4151 126.827 33.7617 127.108 34.0527C127.389 34.3438 127.729 34.5727 128.107 34.7243C128.485 34.8758 128.892 34.9466 129.299 34.9318C129.835 34.9812 130.373 34.8592 130.833 34.5838C131.292 34.3085 131.649 33.8946 131.85 33.4037L134.003 33.4037ZM126.339 30.1611H131.861C131.882 29.8016 131.826 29.4418 131.698 29.1044C131.571 28.7669 131.373 28.4591 131.119 28.2002C130.865 27.9413 130.559 27.7369 130.22 27.5998C129.881 27.4627 129.518 27.396 129.152 27.4037C128.782 27.4015 128.416 27.4713 128.075 27.609C127.733 27.7467 127.423 27.9496 127.161 28.2059C126.899 28.4623 126.692 28.7671 126.551 29.1026C126.41 29.4382 126.338 29.798 126.339 30.1611V30.1611Z" fill="white"/>
<path d="M46.696 10.4769C47.1714 10.4433 47.6484 10.514 48.0926 10.6837C48.5369 10.8534 48.9373 11.118 49.265 11.4583C49.5927 11.7987 49.8395 12.2063 49.9876 12.6518C50.1357 13.0974 50.1815 13.5697 50.1215 14.0347C50.1215 16.3222 48.8645 17.6371 46.696 17.6371H44.0664V10.4769H46.696ZM45.1971 16.6245H46.5697C46.9094 16.6444 47.2493 16.5897 47.5648 16.4641C47.8802 16.3386 48.1632 16.1455 48.3932 15.8988C48.6232 15.6521 48.7943 15.3581 48.8942 15.0381C48.9941 14.7182 49.0202 14.3804 48.9705 14.0493C49.0166 13.7195 48.9878 13.3837 48.8864 13.0662C48.785 12.7486 48.6134 12.457 48.384 12.2122C48.1545 11.9675 47.8729 11.7757 47.5592 11.6507C47.2456 11.5256 46.9077 11.4703 46.5697 11.4887H45.1971V16.6245Z" fill="white"/>
<path d="M51.399 14.9323C51.3644 14.5772 51.4057 14.2189 51.5202 13.8805C51.6347 13.542 51.8199 13.2308 52.0638 12.9668C52.3078 12.7028 52.6051 12.4919 52.9368 12.3475C53.2685 12.2032 53.6272 12.1287 53.9899 12.1287C54.3525 12.1287 54.7112 12.2032 55.0429 12.3475C55.3746 12.4919 55.6719 12.7028 55.9159 12.9668C56.1598 13.2308 56.345 13.542 56.4595 13.8805C56.574 14.2189 56.6153 14.5772 56.5807 14.9323C56.6159 15.2878 56.5751 15.6466 56.4609 15.9856C56.3467 16.3246 56.1617 16.6364 55.9177 16.9009C55.6737 17.1654 55.3761 17.3768 55.0441 17.5214C54.7121 17.666 54.353 17.7408 53.9899 17.7408C53.6267 17.7408 53.2676 17.666 52.9356 17.5214C52.6036 17.3768 52.306 17.1654 52.062 16.9009C51.818 16.6364 51.633 16.3246 51.5188 15.9856C51.4046 15.6466 51.3638 15.2878 51.399 14.9323ZM55.4655 14.9323C55.4655 13.761 54.9305 13.0761 53.9916 13.0761C53.0492 13.0761 52.519 13.761 52.519 14.9323C52.519 16.113 53.0492 16.7927 53.9916 16.7927C54.9305 16.7927 55.4655 16.1083 55.4655 14.9323H55.4655Z" fill="white"/>
<path d="M63.4665 17.6374H62.3417L61.2063 13.6577H61.1205L59.9898 17.6374H58.8757L57.3613 12.2339H58.4611L59.4452 16.3571H59.5263L60.6558 12.2339H61.696L62.8255 16.3571H62.9113L63.8907 12.2339H64.9749L63.4665 17.6374Z" fill="white"/>
<path d="M66.252 12.2341H67.2957V13.0925H67.3767C67.5142 12.7842 67.746 12.5258 68.0399 12.3532C68.3338 12.1806 68.6751 12.1026 69.0162 12.1298C69.2835 12.1101 69.5519 12.1497 69.8016 12.2458C70.0512 12.3419 70.2756 12.4921 70.4583 12.6851C70.6409 12.8781 70.777 13.109 70.8566 13.3608C70.9361 13.6126 70.9571 13.8788 70.9178 14.1396V17.6376H69.8336V14.4074C69.8336 13.539 69.4499 13.1072 68.648 13.1072C68.4665 13.0989 68.2854 13.1293 68.1169 13.1962C67.9485 13.2632 67.7968 13.3653 67.6722 13.4953C67.5476 13.6254 67.453 13.7804 67.395 13.9498C67.337 14.1191 67.317 14.2988 67.3362 14.4765V17.6377H66.252L66.252 12.2341Z" fill="white"/>
<path d="M72.6445 10.1245H73.7288V17.6374H72.6445V10.1245Z" fill="white"/>
<path d="M75.2349 14.9334C75.2004 14.5783 75.2417 14.22 75.3562 13.8815C75.4707 13.543 75.6559 13.2318 75.8999 12.9678C76.1439 12.7038 76.4412 12.4929 76.7729 12.3485C77.1046 12.2042 77.4634 12.1296 77.8261 12.1296C78.1888 12.1296 78.5475 12.2042 78.8792 12.3485C79.2109 12.4929 79.5083 12.7038 79.7522 12.9678C79.9962 13.2318 80.1814 13.543 80.2959 13.8815C80.4104 14.22 80.4518 14.5783 80.4173 14.9334C80.4524 15.2889 80.4116 15.6477 80.2973 15.9867C80.1831 16.3257 79.998 16.6375 79.754 16.902C79.51 17.1665 79.2124 17.3778 78.8804 17.5225C78.5483 17.6671 78.1892 17.7418 77.8261 17.7418C77.4629 17.7418 77.1038 17.6671 76.7718 17.5225C76.4398 17.3778 76.1422 17.1665 75.8981 16.902C75.6541 16.6375 75.469 16.3257 75.3548 15.9867C75.2406 15.6477 75.1997 15.2889 75.2349 14.9334ZM79.3014 14.9334C79.3014 13.7621 78.7664 13.0771 77.8276 13.0771C76.8851 13.0771 76.3549 13.7621 76.3549 14.9334C76.3549 16.1141 76.8851 16.7938 77.8276 16.7938C78.7665 16.7937 79.3014 16.1094 79.3014 14.9334H79.3014Z" fill="white"/>
<path d="M81.5605 16.1083C81.5605 15.1357 82.2969 14.5749 83.6039 14.4953L85.0921 14.4109V13.9445C85.0921 13.3738 84.7084 13.0515 83.9673 13.0515C83.3621 13.0515 82.9427 13.2701 82.8223 13.6521H81.7726C81.8834 12.724 82.7711 12.1287 84.0174 12.1287C85.3947 12.1287 86.1716 12.8031 86.1716 13.9445V17.6365H85.1278V16.8771H85.0421C84.8679 17.1495 84.6234 17.3716 84.3335 17.5206C84.0436 17.6697 83.7186 17.7404 83.3919 17.7255C83.1612 17.7491 82.9281 17.7249 82.7076 17.6545C82.487 17.584 82.2839 17.4689 82.1114 17.3165C81.9389 17.1642 81.8007 16.9779 81.7058 16.7698C81.6109 16.5618 81.5615 16.3364 81.5605 16.1083ZM85.0921 15.6466V15.1949L83.7505 15.2792C82.9939 15.329 82.6507 15.5822 82.6507 16.0585C82.6507 16.5449 83.0797 16.8279 83.6695 16.8279C83.8423 16.8451 84.0169 16.8279 84.1828 16.7774C84.3488 16.7269 84.5027 16.6441 84.6354 16.5339C84.7681 16.4236 84.877 16.2883 84.9554 16.1359C85.0339 15.9835 85.0804 15.8171 85.0921 15.6466Z" fill="white"/>
<path d="M87.5938 14.9333C87.5938 13.2259 88.4862 12.1443 89.8743 12.1443C90.2176 12.1287 90.5584 12.2096 90.8567 12.3775C91.155 12.5453 91.3986 12.7933 91.559 13.0923H91.64V10.1245H92.7243V17.6374H91.6853V16.7837H91.5995C91.4268 17.0807 91.1747 17.3255 90.8706 17.4917C90.5665 17.6579 90.2219 17.7391 89.8743 17.7265C88.4766 17.7265 87.5938 16.6448 87.5938 14.9333ZM88.7138 14.9333C88.7138 16.0794 89.2631 16.7691 90.1817 16.7691C91.0955 16.7691 91.6603 16.0695 91.6603 14.938C91.6603 13.8118 91.0896 13.1023 90.1817 13.1023C89.269 13.1023 88.7137 13.7966 88.7137 14.9333H88.7138Z" fill="white"/>
<path d="M97.2134 14.9323C97.1789 14.5772 97.2202 14.2189 97.3347 13.8805C97.4492 13.542 97.6343 13.2308 97.8783 12.9668C98.1222 12.7028 98.4196 12.4919 98.7512 12.3475C99.0829 12.2032 99.4416 12.1287 99.8043 12.1287C100.167 12.1287 100.526 12.2032 100.857 12.3475C101.189 12.4919 101.486 12.7028 101.73 12.9668C101.974 13.2308 102.159 13.542 102.274 13.8805C102.388 14.2189 102.43 14.5772 102.395 14.9323C102.43 15.2878 102.39 15.6466 102.275 15.9856C102.161 16.3246 101.976 16.6364 101.732 16.9009C101.488 17.1654 101.191 17.3768 100.859 17.5214C100.527 17.666 100.167 17.7408 99.8043 17.7408C99.4412 17.7408 99.0821 17.666 98.7501 17.5214C98.4181 17.3768 98.1205 17.1654 97.8765 16.9009C97.6325 16.6364 97.4474 16.3246 97.3332 15.9856C97.219 15.6466 97.1782 15.2878 97.2134 14.9323ZM101.28 14.9323C101.28 13.761 100.745 13.0761 99.8061 13.0761C98.8636 13.0761 98.3335 13.761 98.3335 14.9323C98.3335 16.113 98.8637 16.7927 99.8061 16.7927C100.745 16.7927 101.28 16.1083 101.28 14.9323Z" fill="white"/>
<path d="M103.848 12.2341H104.891V13.0925H104.972C105.11 12.7842 105.342 12.5258 105.636 12.3532C105.929 12.1806 106.271 12.1026 106.612 12.1298C106.879 12.1101 107.148 12.1497 107.397 12.2458C107.647 12.3419 107.871 12.4921 108.054 12.6851C108.237 12.8781 108.373 13.109 108.452 13.3608C108.532 13.6126 108.553 13.8788 108.514 14.1396V17.6376H107.429V14.4074C107.429 13.539 107.046 13.1072 106.244 13.1072C106.062 13.0989 105.881 13.1293 105.713 13.1962C105.544 13.2632 105.392 13.3653 105.268 13.4953C105.143 13.6254 105.049 13.7804 104.991 13.9498C104.933 14.1191 104.913 14.2988 104.932 14.4765V17.6377H103.848V12.2341Z" fill="white"/>
<path d="M114.641 10.8892V12.2591H115.832V13.1573H114.641V15.9358C114.641 16.5019 114.878 16.7497 115.418 16.7497C115.556 16.7493 115.694 16.7411 115.832 16.7251V17.6134C115.637 17.6476 115.44 17.6659 115.242 17.6679C114.036 17.6679 113.556 17.2507 113.556 16.2089V13.1573H112.684V12.259H113.556V10.8892H114.641Z" fill="white"/>
<path d="M117.312 10.1245H118.387V13.1023H118.473C118.617 12.7911 118.855 12.5312 119.155 12.3579C119.455 12.1847 119.802 12.1066 120.148 12.1343C120.414 12.1201 120.68 12.1637 120.927 12.2622C121.174 12.3606 121.395 12.5114 121.576 12.7038C121.757 12.8962 121.892 13.1255 121.972 13.3753C122.052 13.625 122.076 13.8891 122.04 14.1487V17.6374H120.955V14.4118C120.955 13.5487 120.546 13.1116 119.78 13.1116C119.594 13.0966 119.406 13.1218 119.231 13.1854C119.055 13.2491 118.896 13.3497 118.765 13.4802C118.633 13.6107 118.532 13.7679 118.468 13.9409C118.405 14.1138 118.38 14.2984 118.397 14.4815V17.6374H117.313L117.312 10.1245Z" fill="white"/>
<path d="M128.362 16.1786C128.214 16.6724 127.895 17.0996 127.46 17.3854C127.025 17.6711 126.501 17.7973 125.981 17.7418C125.619 17.7512 125.26 17.683 124.927 17.542C124.595 17.401 124.297 17.1905 124.056 16.9251C123.814 16.6597 123.635 16.3459 123.529 16.0053C123.423 15.6647 123.394 15.3056 123.443 14.9528C123.395 14.5989 123.425 14.239 123.53 13.8974C123.636 13.5558 123.815 13.2405 124.055 12.9728C124.295 12.7051 124.591 12.4913 124.923 12.3458C125.254 12.2004 125.613 12.1267 125.976 12.1297C127.505 12.1297 128.427 13.1569 128.427 14.8537V15.2258H124.548V15.2856C124.531 15.4839 124.556 15.6835 124.622 15.8716C124.688 16.0597 124.794 16.2321 124.931 16.3779C125.069 16.5236 125.236 16.6395 125.422 16.7179C125.608 16.7964 125.809 16.8358 126.011 16.8336C126.27 16.8642 126.533 16.8183 126.766 16.7016C126.999 16.585 127.191 16.4029 127.318 16.1785L128.362 16.1786ZM124.548 14.4371H127.323C127.336 14.2558 127.311 14.0736 127.249 13.9024C127.187 13.7311 127.089 13.5745 126.962 13.4427C126.834 13.3109 126.68 13.2067 126.51 13.1369C126.339 13.0671 126.155 13.0332 125.97 13.0373C125.783 13.035 125.597 13.0697 125.423 13.1392C125.249 13.2087 125.092 13.3118 124.959 13.4422C124.826 13.5727 124.722 13.7279 124.651 13.8988C124.581 14.0697 124.545 14.2527 124.548 14.4371H124.548Z" fill="white"/>
</g>
<defs>
<clipPath id="clip0_703_13594">
<rect width="146" height="48" fill="white" transform="translate(0.546875)"/>
</clipPath>
</defs>
</svg>
