<svg width="19" height="21" viewBox="0 0 19 21" fill="none" xmlns="http://www.w3.org/2000/svg">
<path fill-rule="evenodd" clip-rule="evenodd" d="M13.4125 0.998291C13.5991 2.21307 13.0831 3.40316 12.4025 4.24515C11.6743 5.1483 10.4192 5.84683 9.2031 5.81037C8.9811 4.64734 9.54951 3.44902 10.2411 2.64348C10.9998 1.75444 12.3001 1.07238 13.4125 0.998291ZM17.0656 18.097C17.6925 17.1762 17.9267 16.7117 18.4134 15.6722C14.8737 14.3821 14.3065 9.55945 17.8096 7.70847C16.7411 6.42431 15.2396 5.67992 13.8222 5.67992C12.801 5.67992 12.1013 5.93533 11.4651 6.16752C10.935 6.36101 10.4491 6.53838 9.85804 6.53838C9.21935 6.53838 8.65376 6.34404 8.06153 6.14054C7.41077 5.91693 6.72784 5.68227 5.88042 5.68227C4.28985 5.68227 2.59683 6.61364 1.52345 8.20591C0.0146093 10.4485 0.271978 14.6644 2.71881 18.2558C3.59337 19.5411 4.7619 20.9852 6.29025 20.9981C6.92442 21.0042 7.34643 20.8228 7.80309 20.6265C8.32579 20.4018 8.8939 20.1576 9.87756 20.1526C10.867 20.1469 11.4262 20.3941 11.9419 20.6221C12.3869 20.8187 12.7995 21.0011 13.4283 20.9946C14.9578 20.9829 16.191 19.3824 17.0656 18.097Z" fill="#0A0B0F"/>
</svg>
