<svg width="41" height="41" viewBox="0 0 41 41" fill="none" xmlns="http://www.w3.org/2000/svg">
<path d="M28.5834 6.433V3.83301C28.5834 3.14967 28.0167 2.58301 27.3334 2.58301C26.65 2.58301 26.0834 3.14967 26.0834 3.83301V6.33301H15.25V3.83301C15.25 3.14967 14.6834 2.58301 14 2.58301C13.3167 2.58301 12.75 3.14967 12.75 3.83301V6.433C8.25004 6.84967 6.06672 9.533 5.73339 13.5163C5.70006 13.9997 6.10006 14.3997 6.56672 14.3997H34.7667C35.25 14.3997 35.65 13.983 35.6 13.5163C35.2667 9.533 33.0834 6.84967 28.5834 6.433Z" fill="#004BBB"/>
<path d="M33.9998 16.8994C34.9165 16.8994 35.6665 17.6494 35.6665 18.5661V28.8328C35.6665 33.8328 33.1665 37.1661 27.3332 37.1661H13.9998C8.1665 37.1661 5.6665 33.8328 5.6665 28.8328V18.5661C5.6665 17.6494 6.4165 16.8994 7.33317 16.8994H33.9998Z" fill="#50ADF4"/>
<path d="M25.4001 25.483L24.5667 26.333H24.5501L19.5001 31.383C19.2834 31.5997 18.8334 31.833 18.5167 31.8663L16.2667 32.1996C15.45 32.3163 14.8834 31.733 15.0001 30.933L15.3168 28.6663C15.3668 28.3496 15.5834 27.9163 15.8001 27.683L20.8667 22.633L21.7001 21.783C22.2501 21.233 22.8667 20.833 23.5334 20.833C24.1001 20.833 24.7167 21.0996 25.4001 21.783C26.9001 23.283 26.4167 24.4663 25.4001 25.483Z" fill="#004BBB"/>
</svg>
