<svg width="20" height="20" viewBox="0 0 20 20" fill="none" xmlns="http://www.w3.org/2000/svg">
<path fill-rule="evenodd" clip-rule="evenodd" d="M9.99967 0.833252C4.93717 0.833252 0.833008 4.93742 0.833008 9.99992C0.833008 15.0624 4.93717 19.1666 9.99967 19.1666C15.0622 19.1666 19.1663 15.0624 19.1663 9.99992C19.1663 4.93742 15.0622 0.833252 9.99967 0.833252ZM9.58301 4.99992C9.36199 4.99992 9.15003 5.08772 8.99375 5.244C8.83747 5.40028 8.74967 5.61224 8.74967 5.83325C8.74967 6.05427 8.83747 6.26623 8.99375 6.42251C9.15003 6.57879 9.36199 6.66659 9.58301 6.66659H9.99967C10.2207 6.66659 10.4327 6.57879 10.5889 6.42251C10.7452 6.26623 10.833 6.05427 10.833 5.83325C10.833 5.61224 10.7452 5.40028 10.5889 5.244C10.4327 5.08772 10.2207 4.99992 9.99967 4.99992H9.58301ZM8.33301 8.33325C8.11199 8.33325 7.90003 8.42105 7.74375 8.57733C7.58747 8.73361 7.49967 8.94557 7.49967 9.16659C7.49967 9.3876 7.58747 9.59956 7.74375 9.75584C7.90003 9.91212 8.11199 9.99992 8.33301 9.99992H9.16634V12.4999H8.33301C8.11199 12.4999 7.90003 12.5877 7.74375 12.744C7.58747 12.9003 7.49967 13.1122 7.49967 13.3333C7.49967 13.5543 7.58747 13.7662 7.74375 13.9225C7.90003 14.0788 8.11199 14.1666 8.33301 14.1666H11.6663C11.8874 14.1666 12.0993 14.0788 12.2556 13.9225C12.4119 13.7662 12.4997 13.5543 12.4997 13.3333C12.4997 13.1122 12.4119 12.9003 12.2556 12.744C12.0993 12.5877 11.8874 12.4999 11.6663 12.4999H10.833V9.16659C10.833 8.94557 10.7452 8.73361 10.5889 8.57733C10.4327 8.42105 10.2207 8.33325 9.99967 8.33325H8.33301Z" fill="#64748B"/>
</svg>
