<svg width="21" height="21" viewBox="0 0 21 21" fill="none" xmlns="http://www.w3.org/2000/svg">
<path fill-rule="evenodd" clip-rule="evenodd" d="M10.4993 4.86496C12.377 4.86496 13.6437 5.67607 14.3659 6.35385L17.1881 3.59829C15.4548 1.98718 13.1993 0.998291 10.4993 0.998291C6.58814 0.998291 3.21036 3.24274 1.56592 6.5094L4.79925 9.02051C5.61036 6.6094 7.85481 4.86496 10.4993 4.86496Z" fill="#EA4335"/>
<path fill-rule="evenodd" clip-rule="evenodd" d="M20.1 11.2205C20.1 10.3982 20.0333 9.79825 19.8889 9.17603H10.5V12.8871H16.0111C15.9 13.8094 15.3 15.1982 13.9667 16.1316L17.1222 18.576C19.0111 16.8316 20.1 14.2649 20.1 11.2205Z" fill="#4285F4"/>
<path fill-rule="evenodd" clip-rule="evenodd" d="M4.81111 12.9759C4.6 12.3537 4.47778 11.6871 4.47778 10.9982C4.47778 10.3093 4.6 9.64261 4.8 9.02039L1.56667 6.50928C0.888889 7.86483 0.5 9.38706 0.5 10.9982C0.5 12.6093 0.888889 14.1315 1.56667 15.4871L4.81111 12.9759Z" fill="#FBBC05"/>
<path fill-rule="evenodd" clip-rule="evenodd" d="M10.4999 20.9983C13.1999 20.9983 15.4665 20.1094 17.1221 18.5761L13.9665 16.1316C13.1221 16.7205 11.9887 17.1316 10.4999 17.1316C7.85542 17.1316 5.61097 15.3872 4.81097 12.9761L1.57764 15.4872C3.22208 18.7539 6.58875 20.9983 10.4999 20.9983Z" fill="#34A853"/>
</svg>
