<svg width="166" height="48" viewBox="0 0 166 48" fill="none" xmlns="http://www.w3.org/2000/svg">
<g clip-path="url(#clip0_703_13593)">
<path fill-rule="evenodd" clip-rule="evenodd" d="M159.43 48H6.56997C3.19872 48 0.453125 45.2948 0.453125 42V6C0.453125 2.69327 3.19872 0 6.56997 0H159.43C162.798 0 165.547 2.69327 165.547 6V42C165.547 45.2948 162.798 48 159.43 48Z" fill="black"/>
<path fill-rule="evenodd" clip-rule="evenodd" d="M159.43 0.960598C162.258 0.960598 164.572 3.22594 164.572 6V42C164.572 44.7741 162.273 47.0394 159.43 47.0394H6.56997C3.74237 47.0394 1.42805 44.7741 1.42805 42V6C1.42805 3.22594 3.72718 0.960598 6.56997 0.960598H159.43ZM159.43 0H6.56997C3.19872 0 0.453125 2.70524 0.453125 6V42C0.453125 45.3067 3.19872 48 6.56997 48H159.43C162.798 48 165.547 45.3067 165.547 42V6C165.547 2.70524 162.798 0 159.43 0Z" fill="#A6A6A6"/>
<path d="M87.4254 15.8797C86.3229 15.8797 85.3936 15.4997 84.6586 14.7515C83.9297 14.0244 83.5227 13.0219 83.5409 11.9984C83.5409 10.9062 83.9175 9.98146 84.6586 9.2483C85.3905 8.50017 86.3199 8.12012 87.4224 8.12012C88.5127 8.12012 89.4421 8.50017 90.1892 9.2483C90.9303 10.0054 91.3069 10.9301 91.3069 11.9984C91.2947 13.0937 90.9181 14.0184 90.1892 14.7485C89.4573 15.5027 88.5279 15.8797 87.4254 15.8797ZM54.6213 15.8797C53.5431 15.8797 52.6076 15.5057 51.8423 14.7665C51.083 14.0303 50.6973 13.0997 50.6973 12.0014C50.6973 10.9032 51.083 9.97249 51.8423 9.23633C52.5924 8.49718 53.5279 8.12311 54.6213 8.12311C55.1558 8.12311 55.6751 8.22785 56.1732 8.44032C56.6622 8.6468 57.0601 8.9281 57.3547 9.27224L57.4276 9.35902L56.6045 10.155L56.5195 10.0563C56.0548 9.51164 55.4322 9.2453 54.6091 9.2453C53.8741 9.2453 53.2333 9.50266 52.7048 10.0114C52.1733 10.5231 51.903 11.1934 51.903 12.0044C51.903 12.8154 52.1733 13.4857 52.7048 13.9974C53.2333 14.5062 53.8741 14.7635 54.6091 14.7635C55.3927 14.7635 56.0517 14.5062 56.565 13.9974C56.8687 13.6982 57.057 13.2792 57.1239 12.7495H54.4846V11.6303H58.2567L58.2719 11.7321C58.2992 11.9206 58.3266 12.1151 58.3266 12.2947C58.3266 13.3271 58.0107 14.162 57.3851 14.7785C56.6744 15.5086 55.745 15.8797 54.6213 15.8797ZM98.2377 15.7211H97.0744L93.5119 10.1042L93.5422 11.1156V15.7181H92.379V8.28171H93.7062L93.7427 8.33857L97.0926 13.6293L97.0623 12.6209V8.28171H98.2377V15.7211ZM78.6845 15.7211H77.5061V9.40092H75.4621V8.28171H80.7255V9.40092H78.6815V15.7211H78.6845ZM74.5024 15.7211H73.327V8.28171H74.5024V15.7211ZM67.8966 15.7211H66.7212V9.40092H64.6772V8.28171H69.9406V9.40092H67.8966V15.7211ZM63.9331 15.7091H59.426V8.28171H63.9331V9.40092H60.6044V11.4418H63.6082V12.549H60.6044V14.5899H63.9331V15.7091ZM85.5211 13.9825C86.0466 14.5002 86.6844 14.7605 87.4254 14.7605C88.1877 14.7605 88.8104 14.5062 89.3297 13.9825C89.846 13.4737 90.1072 12.8064 90.1072 12.0014C90.1072 11.1964 89.846 10.5261 89.3327 10.0204C88.8073 9.50266 88.1665 9.24231 87.4285 9.24231C86.6661 9.24231 86.0435 9.49668 85.5272 10.0204C85.0109 10.5291 84.7497 11.1964 84.7497 12.0014C84.7497 12.8064 85.0079 13.4767 85.5211 13.9825Z" fill="white"/>
<path fill-rule="evenodd" clip-rule="evenodd" d="M83.4322 26.109C80.5621 26.109 78.2356 28.2546 78.2356 31.2142C78.2356 34.1469 80.5772 36.3195 83.4322 36.3195C86.3023 36.3195 88.6288 34.1589 88.6288 31.2142C88.6288 28.2546 86.3023 26.109 83.4322 26.109ZM83.4322 34.2965C81.862 34.2965 80.5104 33.0157 80.5104 31.2023C80.5104 29.3619 81.865 28.108 83.4322 28.108C85.0024 28.108 86.3539 29.3619 86.3539 31.2023C86.357 33.0277 85.0024 34.2965 83.4322 34.2965ZM72.0944 26.109C69.2243 26.109 66.8979 28.2546 66.8979 31.2142C66.8979 34.1469 69.2395 36.3195 72.0944 36.3195C74.9646 36.3195 77.291 34.1589 77.291 31.2142C77.291 28.2546 74.9615 26.109 72.0944 26.109ZM72.0944 34.2965C70.5242 34.2965 69.1727 33.0157 69.1727 31.2023C69.1727 29.3619 70.5273 28.108 72.0944 28.108C73.6647 28.108 75.0162 29.3619 75.0162 31.2023C75.0162 33.0277 73.6647 34.2965 72.0944 34.2965ZM58.6034 27.6681V29.8287H63.8668C63.7058 31.0407 63.2988 31.9354 62.6762 32.5489C61.9048 33.309 60.7142 34.1349 58.6155 34.1349C55.3809 34.1349 52.851 31.5614 52.851 28.3743C52.851 25.1873 55.3809 22.6137 58.6155 22.6137C60.3619 22.6137 61.6345 23.293 62.579 24.1609L64.134 22.6287C62.822 21.3898 61.0756 20.4412 58.6277 20.4412C54.1904 20.4412 50.4668 24.0023 50.4668 28.3624C50.4668 32.7344 54.1873 36.2836 58.6277 36.2836C61.024 36.2836 62.822 35.5115 64.2434 34.0571C65.6921 32.6297 66.1507 30.6157 66.1507 28.9908C66.1507 28.4851 66.1112 28.0302 66.0292 27.6442H58.6003C58.6034 27.6412 58.6034 27.6681 58.6034 27.6681ZM113.786 29.3499C113.351 28.2038 112.039 26.097 109.348 26.097C106.682 26.097 104.465 28.1649 104.465 31.2023C104.465 34.0691 106.657 36.3075 109.606 36.3075C111.975 36.3075 113.354 34.8801 113.922 34.0422L112.164 32.8811C111.581 33.7339 110.77 34.2935 109.619 34.2935C108.455 34.2935 107.641 33.7728 107.101 32.7464L114.029 29.9185C114.029 29.9215 113.786 29.3499 113.786 29.3499ZM106.721 31.0556C106.666 29.0836 108.276 28.0811 109.427 28.0811C110.335 28.0811 111.092 28.521 111.35 29.1614L106.721 31.0556ZM101.093 36.0023H103.368V21.0038H101.093V36.0023ZM97.3576 27.2432H97.2756C96.7623 26.6417 95.7874 26.097 94.5421 26.097C91.9575 26.097 89.5764 28.3384 89.5764 31.2172C89.5764 34.0841 91.9454 36.2985 94.5421 36.2985C95.7722 36.2985 96.7623 35.7509 97.2756 35.1374H97.3576V35.8706C97.3576 37.8187 96.3006 38.8691 94.5968 38.8691C93.2027 38.8691 92.3371 37.8816 91.9848 37.0556L90.0076 37.8696C90.5756 39.2162 92.0911 40.8831 94.5938 40.8831C97.2604 40.8831 99.52 39.3359 99.52 35.5624V26.4023H97.3697V27.2432C97.3728 27.2432 97.3576 27.2432 97.3576 27.2432ZM94.7456 34.2965C93.1754 34.2965 91.8633 33.0038 91.8633 31.2172C91.8633 29.4157 93.1754 28.111 94.7456 28.111C96.3006 28.111 97.5064 29.4307 97.5064 31.2172C97.5216 33.0038 96.3037 34.2965 94.7456 34.2965ZM124.437 21.0038H118.997V36.0023H121.272V30.3225H124.44C126.958 30.3225 129.433 28.524 129.433 25.6691C129.433 22.8142 126.967 21.0038 124.437 21.0038ZM124.504 28.2277H121.269V23.0806H124.504C126.208 23.0806 127.17 24.4661 127.17 25.6541C127.17 26.8302 126.195 28.2277 124.504 28.2277ZM138.551 26.0821C136.898 26.0821 135.195 26.8033 134.49 28.3743L136.507 29.2003C136.941 28.3743 137.737 28.093 138.578 28.093C139.756 28.093 140.947 28.7873 140.974 30.0262V30.1848C140.567 29.9574 139.674 29.6102 138.605 29.6102C136.428 29.6102 134.22 30.7833 134.22 32.9828C134.22 34.9968 136.006 36.2895 137.995 36.2895C139.523 36.2895 140.364 35.6102 140.889 34.8232H140.971V35.9843H143.164V30.2387C143.164 27.5634 141.147 26.0821 138.551 26.0821ZM138.265 34.2965C137.521 34.2965 136.479 33.9374 136.479 33.0157C136.479 31.8546 137.779 31.4147 138.888 31.4147C139.89 31.4147 140.364 31.6272 140.959 31.9205C140.795 33.2671 139.641 34.2845 138.265 34.2965ZM151.164 26.4023L148.552 32.908H148.47L145.764 26.4023H143.316L147.377 35.4965L145.062 40.5509H147.431L153.679 26.4023H151.164ZM130.687 36.0023H132.962V21.0038H130.687V36.0023Z" fill="white"/>
<path fill-rule="evenodd" clip-rule="evenodd" d="M13.1613 9.04174C12.809 9.4158 12.6055 9.98737 12.6055 10.7355V37.2702C12.6055 38.0183 12.809 38.5899 13.1734 38.949L13.2676 39.0298L28.3562 24.1629V23.8308L13.2554 8.96094L13.1613 9.04174Z" fill="url(#paint0_linear_703_13593)"/>
<path fill-rule="evenodd" clip-rule="evenodd" d="M33.3764 29.132L28.3438 24.1734V23.8263L33.3764 18.8677L33.4857 18.9335L39.4386 22.2672C41.1424 23.2128 41.1424 24.7749 39.4386 25.7325L33.4857 29.0662L33.3764 29.132Z" fill="url(#paint1_linear_703_13593)"/>
<path fill-rule="evenodd" clip-rule="evenodd" d="M33.4848 29.0668L28.3429 24.0005L13.1602 38.9601C13.716 39.5466 14.6484 39.6125 15.6901 39.0409L33.4848 29.0668Z" fill="url(#paint2_linear_703_13593)"/>
<path fill-rule="evenodd" clip-rule="evenodd" d="M33.4848 18.9354L15.6901 8.97629C14.6484 8.38975 13.7129 8.47055 13.1602 9.05709L28.3429 24.0017L33.4848 18.9354Z" fill="url(#paint3_linear_703_13593)"/>
<path opacity="0.2" fill-rule="evenodd" clip-rule="evenodd" d="M33.3752 28.9604L15.7018 38.8537C14.7148 39.4133 13.834 39.3744 13.266 38.8656L13.1719 38.9584L13.266 39.0392C13.834 39.5449 14.7148 39.5868 15.7018 39.0272L33.4967 29.0682L33.3752 28.9604Z" fill="black"/>
<path opacity="0.12" fill-rule="evenodd" clip-rule="evenodd" d="M39.4387 25.5596L33.3613 28.9591L33.4707 29.0668L39.4235 25.7332C40.2769 25.2544 40.6961 24.6259 40.6961 24.0005C40.6444 24.5751 40.2101 25.1197 39.4387 25.5596Z" fill="black"/>
<path opacity="0.25" fill-rule="evenodd" clip-rule="evenodd" d="M15.6912 9.1502L39.4388 22.443C40.2102 22.8709 40.6445 23.4305 40.7114 24.0021C40.7114 23.3766 40.2922 22.7482 39.4388 22.2694L15.6912 8.97663C13.9874 8.01603 12.6055 8.81803 12.6055 10.7362V10.9098C12.6055 8.9886 13.9874 8.20157 15.6912 9.1502Z" fill="white"/>
</g>
<defs>
<linearGradient id="paint0_linear_703_13593" x1="27.0028" y1="10.4492" x2="2.88147" y2="16.9722" gradientUnits="userSpaceOnUse">
<stop stop-color="#00A0FF"/>
<stop offset="0.00657" stop-color="#00A1FF"/>
<stop offset="0.2601" stop-color="#00BEFF"/>
<stop offset="0.5122" stop-color="#00D2FF"/>
<stop offset="0.7604" stop-color="#00DFFF"/>
<stop offset="1" stop-color="#00E3FF"/>
</linearGradient>
<linearGradient id="paint1_linear_703_13593" x1="41.6605" y1="23.9999" x2="12.191" y2="23.9999" gradientUnits="userSpaceOnUse">
<stop stop-color="#FFE000"/>
<stop offset="0.4087" stop-color="#FFBD00"/>
<stop offset="0.7754" stop-color="#FFA500"/>
<stop offset="1" stop-color="#FF9C00"/>
</linearGradient>
<linearGradient id="paint2_linear_703_13593" x1="30.6889" y1="26.7573" x2="11.7075" y2="59.1811" gradientUnits="userSpaceOnUse">
<stop stop-color="#FF3A44"/>
<stop offset="1" stop-color="#C31162"/>
</linearGradient>
<linearGradient id="paint3_linear_703_13593" x1="9.33697" y1="0.216277" x2="17.8052" y2="14.6971" gradientUnits="userSpaceOnUse">
<stop stop-color="#32A071"/>
<stop offset="0.0685" stop-color="#2DA771"/>
<stop offset="0.4762" stop-color="#15CF74"/>
<stop offset="0.8009" stop-color="#06E775"/>
<stop offset="1" stop-color="#00F076"/>
</linearGradient>
<clipPath id="clip0_703_13593">
<rect width="165.094" height="48" fill="white" transform="translate(0.453125)"/>
</clipPath>
</defs>
</svg>
