<svg width="16" height="4" viewBox="0 0 16 4" fill="none" xmlns="http://www.w3.org/2000/svg">
<path d="M8 2L8 2.01M14 2L14 2.01M2 2L2 2.01M8 3C7.44772 3 7 2.55228 7 2C7 1.44771 7.44772 1 8 1C8.55228 1 9 1.44771 9 2C9 2.55228 8.55228 3 8 3ZM2 3C1.44772 3 1 2.55228 1 2C1 1.44771 1.44772 0.999999 2 0.999999C2.55228 0.999999 3 1.44771 3 2C3 2.55228 2.55228 3 2 3ZM14 3C13.4477 3 13 2.55228 13 2C13 1.44772 13.4477 1 14 1C14.5523 1 15 1.44772 15 2C15 2.55228 14.5523 3 14 3Z" stroke="#717171" stroke-width="2" stroke-linecap="round" stroke-linejoin="round"/>
</svg>
