<svg width="24" height="24" viewBox="0 0 24 24" fill="none" xmlns="http://www.w3.org/2000/svg">
<g clip-path="url(#clip0_1817_22458)">
<path d="M6.08577 23.9151C4.65848 23.8502 3.88314 23.6127 3.36743 23.4115C2.6841 23.1455 2.19693 22.8288 1.68407 22.3166C1.17122 21.8045 0.853806 21.3173 0.589176 20.634C0.388029 20.1183 0.150504 19.3429 0.0855946 17.9157C0.0142658 16.3728 0 15.9099 0 12.0011C0 8.09225 0.0156923 7.63004 0.0848813 6.08577C0.14979 4.65848 0.388742 3.88457 0.588463 3.36743C0.854519 2.6841 1.17193 2.19693 1.68336 1.68336C2.1955 1.17122 2.68268 0.853092 3.36672 0.588463C3.88243 0.387315 4.65777 0.14979 6.08506 0.0848813C7.62861 0.0142658 8.09225 0 11.9996 0C15.9085 0 16.3707 0.0156923 17.9149 0.0848813C19.3422 0.14979 20.1161 0.388742 20.6333 0.588463C21.3166 0.853092 21.8038 1.17122 22.3166 1.68336C22.8295 2.1955 23.1455 2.68339 23.4115 3.36672C23.6127 3.88243 23.8502 4.65777 23.9151 6.08506C23.9857 7.62933 24 8.09154 24 12.0004C24 15.9077 23.9857 16.3714 23.9151 17.9157C23.8502 19.3429 23.6113 20.1183 23.4115 20.634C23.1455 21.3173 22.8288 21.8045 22.3166 22.3166C21.8045 22.8288 21.3166 23.1455 20.6333 23.4115C20.1176 23.6127 19.3422 23.8502 17.9149 23.9151C16.3721 23.9857 15.9085 24 11.9996 24C8.09225 24 7.62862 23.9864 6.08577 23.9151" fill="url(#paint0_radial_1817_22458)"/>
<path d="M6.08577 23.9151C4.65848 23.8502 3.88314 23.6127 3.36743 23.4115C2.6841 23.1455 2.19693 22.8288 1.68407 22.3166C1.17122 21.8045 0.853806 21.3173 0.589176 20.634C0.388029 20.1183 0.150504 19.3429 0.0855946 17.9157C0.0142658 16.3728 0 15.9099 0 12.0011C0 8.09225 0.0156923 7.63004 0.0848813 6.08577C0.14979 4.65848 0.388742 3.88457 0.588463 3.36743C0.854519 2.6841 1.17193 2.19693 1.68336 1.68336C2.1955 1.17122 2.68268 0.853092 3.36672 0.588463C3.88243 0.387315 4.65777 0.14979 6.08506 0.0848813C7.62861 0.0142658 8.09225 0 11.9996 0C15.9085 0 16.3707 0.0156923 17.9149 0.0848813C19.3422 0.14979 20.1161 0.388742 20.6333 0.588463C21.3166 0.853092 21.8038 1.17122 22.3166 1.68336C22.8295 2.1955 23.1455 2.68339 23.4115 3.36672C23.6127 3.88243 23.8502 4.65777 23.9151 6.08506C23.9857 7.62933 24 8.09154 24 12.0004C24 15.9077 23.9857 16.3714 23.9151 17.9157C23.8502 19.3429 23.6113 20.1183 23.4115 20.634C23.1455 21.3173 22.8288 21.8045 22.3166 22.3166C21.8045 22.8288 21.3166 23.1455 20.6333 23.4115C20.1176 23.6127 19.3422 23.8502 17.9149 23.9151C16.3721 23.9857 15.9085 24 11.9996 24C8.09225 24 7.62862 23.9864 6.08577 23.9151" fill="url(#paint1_radial_1817_22458)"/>
<path d="M9.05294 12.0511C9.05294 10.4098 10.3832 9.07887 12.0245 9.07887C13.6658 9.07887 14.9968 10.4098 14.9968 12.0511C14.9968 13.6925 13.6658 15.0234 12.0245 15.0234C10.3832 15.0234 9.05294 13.6925 9.05294 12.0511M7.44619 12.0511C7.44619 14.5797 9.49589 16.6294 12.0245 16.6294C14.5531 16.6294 16.6028 14.5797 16.6028 12.0511C16.6028 9.52253 14.5531 7.47283 12.0245 7.47283C9.49589 7.47283 7.44626 9.52239 7.44626 12.0511M15.7142 7.2913C15.7141 7.50291 15.7768 7.7098 15.8943 7.88579C16.0118 8.06179 16.1788 8.19899 16.3743 8.28005C16.5698 8.36111 16.7849 8.38238 16.9924 8.34118C17.2 8.29998 17.3907 8.19816 17.5404 8.04858C17.6901 7.89901 17.792 7.70841 17.8334 7.50088C17.8748 7.29335 17.8537 7.07821 17.7728 6.88268C17.6919 6.68714 17.5548 6.51998 17.3789 6.40235C17.203 6.28471 16.9962 6.22188 16.7846 6.22179H16.7841C16.5005 6.22193 16.2285 6.33463 16.0279 6.53516C15.8273 6.73569 15.7144 7.00765 15.7142 7.2913M8.42239 19.3087C7.55311 19.2691 7.08063 19.1243 6.76664 19.002C6.35036 18.8399 6.05335 18.6469 5.74107 18.3351C5.4288 18.0232 5.23549 17.7265 5.07415 17.3102C4.95175 16.9964 4.80695 16.5237 4.76743 15.6545C4.72421 14.7146 4.71558 14.4323 4.71558 12.0513C4.71558 9.67026 4.72492 9.38872 4.76743 8.44811C4.80702 7.57882 4.95289 7.10713 5.07415 6.79235C5.23621 6.37608 5.42922 6.07906 5.74107 5.76679C6.05292 5.45451 6.34965 5.26121 6.76664 5.09986C7.08049 4.97746 7.55311 4.83267 8.42239 4.79315C9.36222 4.74992 9.64454 4.74129 12.0245 4.74129C14.4045 4.74129 14.6871 4.75049 15.6277 4.79329C16.497 4.83288 16.9687 4.97875 17.2834 5.10001C17.6997 5.26135 17.9967 5.45508 18.309 5.76693C18.6213 6.07878 18.8139 6.37622 18.9759 6.7925C19.0983 7.10634 19.2431 7.57897 19.2826 8.44825C19.3259 9.38886 19.3345 9.6704 19.3345 12.0514C19.3345 14.4325 19.3259 14.714 19.2826 15.6546C19.243 16.5239 19.0975 16.9964 18.9759 17.3104C18.8139 17.7266 18.6208 18.0236 18.309 18.3352C17.9971 18.6468 17.6997 18.8401 17.2834 19.0021C16.9696 19.1245 16.497 19.2693 15.6277 19.3088C14.6878 19.3521 14.4055 19.3607 12.0245 19.3607C9.64347 19.3607 9.36194 19.3521 8.42239 19.3088M8.34857 3.18904C7.3994 3.23226 6.7508 3.38277 6.18438 3.60317C5.59813 3.83078 5.10118 4.13614 4.60495 4.63159C4.10871 5.12704 3.80414 5.62406 3.57653 6.21102C3.35612 6.7778 3.20562 7.42604 3.16239 8.37521C3.11846 9.32588 3.1084 9.62981 3.1084 12.0511C3.1084 14.4725 3.11846 14.7764 3.16239 15.7271C3.20562 16.6763 3.35612 17.3245 3.57653 17.8913C3.80414 18.4775 4.10878 18.9755 4.60495 19.4707C5.10111 19.9659 5.59742 20.2709 6.18438 20.4991C6.75187 20.7195 7.3994 20.87 8.34857 20.9132C9.29974 20.9565 9.60317 20.9672 12.0245 20.9672C14.4458 20.9672 14.7498 20.9572 15.7004 20.9132C16.6497 20.87 17.2978 20.7195 17.8646 20.4991C18.4509 20.2709 18.9478 19.9661 19.444 19.4707C19.9403 18.9752 20.2442 18.4775 20.4725 17.8913C20.6929 17.3245 20.8441 16.6762 20.8866 15.7271C20.9298 14.7757 20.9399 14.4725 20.9399 12.0511C20.9399 9.62981 20.9298 9.32588 20.8866 8.37521C20.8434 7.42597 20.6929 6.77745 20.4725 6.21102C20.2442 5.62477 19.9395 5.12782 19.444 4.63159C18.9486 4.13536 18.4509 3.83078 17.8653 3.60317C17.2978 3.38277 16.6496 3.23155 15.7011 3.18904C14.7503 3.1456 14.4465 3.13504 12.0256 3.13504C9.6046 3.13504 9.3001 3.1451 8.34893 3.18904" fill="white"/>
</g>
<defs>
<radialGradient id="paint0_radial_1817_22458" cx="0" cy="0" r="1" gradientUnits="userSpaceOnUse" gradientTransform="translate(1.55326 23.4742) scale(30.4711)">
<stop offset="0.09" stop-color="#FA8F21"/>
<stop offset="0.78" stop-color="#D82D7E"/>
</radialGradient>
<radialGradient id="paint1_radial_1817_22458" cx="0" cy="0" r="1" gradientUnits="userSpaceOnUse" gradientTransform="translate(16.624 22.7036) scale(26.8148)">
<stop offset="0.64" stop-color="#8C3AAA" stop-opacity="0"/>
<stop offset="1" stop-color="#8C3AAA"/>
</radialGradient>
<clipPath id="clip0_1817_22458">
<rect width="24" height="24" fill="white"/>
</clipPath>
</defs>
</svg>
