<svg width="64" height="64" viewBox="0 0 64 64" fill="none" xmlns="http://www.w3.org/2000/svg">
<path d="M57.7337 26.7464C56.6937 25.2531 54.8537 24.3998 52.747 24.3998H41.8137C41.0937 24.3998 40.427 24.1064 39.9737 23.5731C39.4937 23.0398 39.307 22.2931 39.4137 21.5198L40.7737 12.7731C41.3603 10.1598 39.627 7.22644 37.0137 6.34644C34.587 5.43977 31.7337 6.66644 30.587 8.39977L19.3337 25.1198L19.0137 25.6531V49.2264L19.4137 49.6264L27.867 56.1598C28.987 57.2798 31.5203 57.8931 33.307 57.8931H43.707C47.2803 57.8931 50.8803 55.1998 51.6803 51.9198L58.2403 31.9464C58.9337 30.0531 58.747 28.2131 57.7337 26.7464Z" fill="#50ADF4"/>
<path d="M13.892 17.0132H11.1454C7.01203 17.0132 5.33203 18.6132 5.33203 22.5599V49.3865C5.33203 53.3332 7.01203 54.9332 11.1454 54.9332H13.892C18.0254 54.9332 19.7054 53.3332 19.7054 49.3865V22.5599C19.7054 18.6132 18.0254 17.0132 13.892 17.0132Z" fill="#004BBB"/>
</svg>
