<svg width="40" height="40" viewBox="0 0 40 40" fill="none" xmlns="http://www.w3.org/2000/svg">
<rect width="40" height="40" rx="20" fill="#E6F1FC"/>
<path opacity="0.4" d="M27.3399 22.4899L26.3399 20.8299C26.1299 20.4599 25.9399 19.7599 25.9399 19.3499V16.8199C25.9399 13.5599 23.2899 10.8999 20.0199 10.8999C16.7499 10.8999 14.0999 13.5599 14.0999 16.8199V19.3499C14.0999 19.7599 13.9099 20.4599 13.6999 20.8199L12.6899 22.4899C12.2899 23.1599 12.1999 23.8999 12.4499 24.5799C12.6899 25.2499 13.2599 25.7699 13.9999 26.0199C15.9399 26.6799 17.9799 26.9999 20.0199 26.9999C22.0599 26.9999 24.0999 26.6799 26.0399 26.0299C26.7399 25.7999 27.2799 25.2699 27.5399 24.5799C27.7999 23.8899 27.7299 23.1299 27.3399 22.4899Z" fill="#0E82F6"/>
<path d="M22.25 11.32C21.56 11.05 20.81 10.9 20.02 10.9C19.24 10.9 18.49 11.04 17.8 11.32C18.23 10.51 19.08 10 20.02 10C20.97 10 21.81 10.51 22.25 11.32Z" fill="#0E82F6"/>
<path d="M22.8299 28.01C22.4099 29.17 21.2999 30 19.9999 30C19.2099 30 18.4299 29.68 17.8799 29.11C17.5599 28.81 17.3199 28.41 17.1799 28C17.3099 28.02 17.4399 28.03 17.5799 28.05C17.8099 28.08 18.0499 28.11 18.2899 28.13C18.8599 28.18 19.4399 28.21 20.0199 28.21C20.5899 28.21 21.1599 28.18 21.7199 28.13C21.9299 28.11 22.1399 28.1 22.3399 28.07C22.4999 28.05 22.6599 28.03 22.8299 28.01Z" fill="#0E82F6"/>
</svg>
