<svg width="34" height="31" viewBox="0 0 34 31" fill="none" xmlns="http://www.w3.org/2000/svg">
<path d="M27.0002 0.5H7.00016C3.31683 0.5 0.333496 3.46667 0.333496 7.11667V23.8833C0.333496 27.5333 3.31683 30.5 7.00016 30.5H27.0002C30.6835 30.5 33.6668 27.5333 33.6668 23.8833V7.11667C33.6668 3.46667 30.6835 0.5 27.0002 0.5Z" fill="#50ADF4"/>
<path d="M28.6668 10.083H20.3335C19.6502 10.083 19.0835 9.51634 19.0835 8.83301C19.0835 8.14967 19.6502 7.58301 20.3335 7.58301H28.6668C29.3502 7.58301 29.9168 8.14967 29.9168 8.83301C29.9168 9.51634 29.3502 10.083 28.6668 10.083Z" fill="#004BBB"/>
<path d="M28.6667 16.751H22C21.3167 16.751 20.75 16.1843 20.75 15.501C20.75 14.8176 21.3167 14.251 22 14.251H28.6667C29.35 14.251 29.9167 14.8176 29.9167 15.501C29.9167 16.1843 29.35 16.751 28.6667 16.751Z" fill="#004BBB"/>
<path d="M28.6668 23.416H25.3335C24.6502 23.416 24.0835 22.8493 24.0835 22.166C24.0835 21.4827 24.6502 20.916 25.3335 20.916H28.6668C29.3502 20.916 29.9168 21.4827 29.9168 22.166C29.9168 22.8493 29.3502 23.416 28.6668 23.416Z" fill="#004BBB"/>
<path d="M11.1669 15.1492C13.2932 15.1492 15.0169 13.4255 15.0169 11.2992C15.0169 9.17292 13.2932 7.44922 11.1669 7.44922C9.0406 7.44922 7.31689 9.17292 7.31689 11.2992C7.31689 13.4255 9.0406 15.1492 11.1669 15.1492Z" fill="#004BBB"/>
<path d="M12.5 17.3506C11.6167 17.2673 10.7 17.2673 9.81671 17.3506C7.01671 17.6173 4.76671 19.8339 4.50004 22.6339C4.48338 22.8673 4.55004 23.1006 4.71671 23.2673C4.88338 23.4339 5.10004 23.5506 5.33338 23.5506H17C17.2334 23.5506 17.4667 23.4506 17.6167 23.2839C17.7667 23.1173 17.85 22.8839 17.8334 22.6506C17.55 19.8339 15.3167 17.6173 12.5 17.3506Z" fill="#004BBB"/>
</svg>
