<svg width="131" height="40" viewBox="0 0 131 40" fill="none" xmlns="http://www.w3.org/2000/svg">
<path d="M20 39.9997L0.000320435 20H0.00315285L29.3267 30.673L20 39.9997Z" fill="#004BBB"/>
<path d="M29.327 30.673L0.00349426 20L40 20L29.327 30.673Z" fill="#0E82F6"/>
<path d="M0.00310135 19.9978L20.0006 0.000244141L29.3252 9.3248L0.00310135 19.9978Z" fill="#9DE7F6"/>
<path d="M40 19.9998H0.00350189L0.00137711 19.9991L0.00279236 19.9977L29.3249 9.32471L40 19.9998Z" fill="#50ADF4"/>
<path d="M59.664 31.384C58.0213 31.384 56.5813 31.096 55.344 30.52C54.1067 29.944 53.136 29.1227 52.432 28.056C51.7493 26.9893 51.3973 25.72 51.376 24.248H54.96C54.9813 25.4427 55.3973 26.456 56.208 27.288C57.0187 28.12 58.16 28.536 59.632 28.536C60.9333 28.536 61.9467 28.2267 62.672 27.608C63.4187 26.968 63.792 26.1573 63.792 25.176C63.792 24.3867 63.6107 23.7467 63.248 23.256C62.9067 22.7653 62.4267 22.36 61.808 22.04C61.2107 21.72 60.5173 21.432 59.728 21.176C58.9387 20.92 58.1067 20.6427 57.232 20.344C55.504 19.768 54.2027 19.0213 53.328 18.104C52.4747 17.1867 52.048 15.9813 52.048 14.488C52.0267 13.2293 52.3147 12.1307 52.912 11.192C53.5307 10.2533 54.384 9.528 55.472 9.016C56.5813 8.48267 57.872 8.216 59.344 8.216C60.7947 8.216 62.064 8.48267 63.152 9.016C64.2613 9.54933 65.1253 10.296 65.744 11.256C66.3627 12.1947 66.6827 13.2933 66.704 14.552H63.12C63.12 13.976 62.9707 13.432 62.672 12.92C62.3733 12.3867 61.936 11.9493 61.36 11.608C60.784 11.2667 60.08 11.096 59.248 11.096C58.1813 11.0747 57.296 11.3413 56.592 11.896C55.9093 12.4507 55.568 13.2187 55.568 14.2C55.568 15.0747 55.824 15.7467 56.336 16.216C56.848 16.6853 57.552 17.08 58.448 17.4C59.344 17.6987 60.368 18.0507 61.52 18.456C62.6293 18.8187 63.6213 19.256 64.496 19.768C65.3707 20.28 66.064 20.952 66.576 21.784C67.1093 22.616 67.376 23.672 67.376 24.952C67.376 26.0827 67.088 27.1387 66.512 28.12C65.936 29.08 65.072 29.8693 63.92 30.488C62.768 31.0853 61.3493 31.384 59.664 31.384ZM69.6765 38.04V15.128H72.7165L73.0685 17.592C73.5805 16.8453 74.2845 16.184 75.1805 15.608C76.0765 15.032 77.2285 14.744 78.6365 14.744C80.1725 14.744 81.5272 15.1067 82.7005 15.832C83.8738 16.5573 84.7912 17.5493 85.4525 18.808C86.1352 20.0667 86.4765 21.496 86.4765 23.096C86.4765 24.696 86.1352 26.1253 85.4525 27.384C84.7912 28.6213 83.8738 29.6027 82.7005 30.328C81.5272 31.032 80.1618 31.384 78.6045 31.384C77.3672 31.384 76.2685 31.1387 75.3085 30.648C74.3698 30.1573 73.6232 29.464 73.0685 28.568V38.04H69.6765ZM78.0285 28.44C79.4792 28.44 80.6738 27.9493 81.6125 26.968C82.5512 25.9653 83.0205 24.664 83.0205 23.064C83.0205 22.0187 82.8072 21.0907 82.3805 20.28C81.9538 19.4693 81.3672 18.84 80.6205 18.392C79.8738 17.9227 79.0098 17.688 78.0285 17.688C76.5778 17.688 75.3832 18.1893 74.4445 19.192C73.5272 20.1947 73.0685 21.4853 73.0685 23.064C73.0685 24.664 73.5272 25.9653 74.4445 26.968C75.3832 27.9493 76.5778 28.44 78.0285 28.44ZM88.8652 31V15.128H91.9052L92.1932 18.136C92.7479 17.0907 93.5159 16.2693 94.4972 15.672C95.4999 15.0533 96.7052 14.744 98.1132 14.744V18.296H97.1852C96.2466 18.296 95.4039 18.456 94.6572 18.776C93.9319 19.0747 93.3452 19.5973 92.8972 20.344C92.4706 21.0693 92.2572 22.0827 92.2572 23.384V31H88.8652ZM101.661 12.12C101.021 12.12 100.488 11.928 100.062 11.544C99.6562 11.1387 99.4535 10.6373 99.4535 10.04C99.4535 9.44267 99.6562 8.952 100.062 8.568C100.488 8.16267 101.021 7.96 101.661 7.96C102.302 7.96 102.824 8.16267 103.23 8.568C103.656 8.952 103.87 9.44267 103.87 10.04C103.87 10.6373 103.656 11.1387 103.23 11.544C102.824 11.928 102.302 12.12 101.661 12.12ZM99.9655 31V15.128H103.358V31H99.9655ZM113.211 31C111.654 31 110.417 30.6267 109.499 29.88C108.582 29.112 108.123 27.7573 108.123 25.816V17.976H105.403V15.128H108.123L108.539 11.096H111.515V15.128H115.995V17.976H111.515V25.816C111.515 26.6907 111.697 27.2987 112.059 27.64C112.443 27.96 113.094 28.12 114.011 28.12H115.835V31H113.211ZM117.157 31V28.248L125.637 17.944H117.285V15.128H129.477V17.88L120.933 28.184H129.637V31H117.157Z" fill="#00051E"/>
</svg>
