<svg width="15" height="14" viewBox="0 0 15 14" fill="none" xmlns="http://www.w3.org/2000/svg">
<path d="M7.18515 0.905795C7.28891 0.607275 7.71109 0.607276 7.81485 0.905796L9.30476 5.19205C9.35053 5.32374 9.47343 5.41303 9.61282 5.41587L14.1497 5.50833C14.4657 5.51477 14.5961 5.91628 14.3443 6.10721L10.7282 8.84872C10.6171 8.93295 10.5702 9.07742 10.6105 9.21087L11.9246 13.5543C12.0161 13.8568 11.6746 14.1049 11.4151 13.9244L7.69039 11.3325C7.57595 11.2529 7.42405 11.2529 7.30961 11.3325L3.58485 13.9244C3.32544 14.1049 2.98389 13.8568 3.07541 13.5543L4.38945 9.21087C4.42982 9.07742 4.38288 8.93295 4.27178 8.84872L0.655715 6.10721C0.403871 5.91628 0.534331 5.51477 0.850306 5.50833L5.38718 5.41587C5.52657 5.41303 5.64947 5.32374 5.69524 5.19205L7.18515 0.905795Z" fill="#717171"/>
</svg>
