<svg width="41" height="41" viewBox="0 0 41 41" fill="none" xmlns="http://www.w3.org/2000/svg">
<path d="M21.8333 4.70047L21.7833 4.81714L16.95 16.0338H12.2C11.0667 16.0338 10 16.2505 9 16.6838L11.9167 9.71714L11.9833 9.56714L12.0833 9.30047C12.1333 9.18381 12.1667 9.08381 12.2167 9.00047C14.4 3.95047 16.8667 2.80047 21.8333 4.70047Z" fill="#50ADF4"/>
<path d="M30.8169 16.3669C30.0669 16.1502 29.2835 16.0335 28.4669 16.0335H16.9502L21.7835 4.81686L21.8335 4.7002C22.0669 4.78353 22.3169 4.9002 22.5669 4.98353L26.2502 6.53353C28.3002 7.38353 29.7335 8.26686 30.6169 9.33353C30.7669 9.53353 30.9002 9.71686 31.0335 9.93353C31.1835 10.1669 31.3002 10.4002 31.3669 10.6502C31.4335 10.8002 31.4835 10.9335 31.5169 11.0835C31.9502 12.5002 31.6835 14.2169 30.8169 16.3669Z" fill="#004BBB"/>
<path d="M36.6002 24.1665V27.4165C36.6002 27.7499 36.5836 28.0832 36.5669 28.3999C36.2502 34.2332 33.0002 37.1665 26.8336 37.1665H13.8336C13.4169 37.1665 13.0336 37.1332 12.6502 37.0832C7.35023 36.7332 4.51689 33.8999 4.15023 28.5999C4.10023 28.1999 4.06689 27.8165 4.06689 27.4165V24.1665C4.06689 20.8165 6.10023 17.9332 9.00023 16.6832C10.0002 16.2499 11.0669 16.0332 12.2002 16.0332H28.4669C29.2836 16.0332 30.0669 16.1499 30.8169 16.3665C34.1502 17.3832 36.6002 20.4832 36.6002 24.1665Z" fill="#50ADF4"/>
<path opacity="0.6" d="M11.9169 9.7168L9.00023 16.6835C6.10023 17.9335 4.06689 20.8168 4.06689 24.1668V19.2835C4.06689 14.5501 7.43356 10.6001 11.9169 9.7168Z" fill="#004BBB"/>
<path opacity="0.6" d="M36.6002 19.2837V24.1671C36.6002 20.4837 34.1502 17.3837 30.8169 16.3671C31.6836 14.2171 31.9502 12.5004 31.5169 11.0837C31.4836 10.9337 31.4336 10.8004 31.3669 10.6504C34.4836 12.2671 36.6002 15.5504 36.6002 19.2837Z" fill="#004BBB"/>
<path d="M24.5003 24.9837H21.5837V22.167C21.5837 21.4837 21.017 20.917 20.3337 20.917C19.6503 20.917 19.0837 21.4837 19.0837 22.167V24.9837H16.167C15.4837 24.9837 14.917 25.5503 14.917 26.2337C14.917 26.917 15.4837 27.4837 16.167 27.4837H19.0837V30.5003C19.0837 31.1837 19.6503 31.7503 20.3337 31.7503C21.017 31.7503 21.5837 31.1837 21.5837 30.5003V27.4837H24.5003C25.1837 27.4837 25.7503 26.917 25.7503 26.2337C25.7503 25.5503 25.1837 24.9837 24.5003 24.9837Z" fill="#004BBB"/>
</svg>
