<svg width="24" height="18" viewBox="0 0 24 18" fill="none" xmlns="http://www.w3.org/2000/svg">
<g clip-path="url(#clip0_1688_20916)">
<path d="M23.4704 3.13208C23.3327 2.62334 23.0642 2.15954 22.6915 1.78686C22.3188 1.41418 21.855 1.14563 21.3463 1.00795C19.4838 0.5 11.988 0.5 11.988 0.5C11.988 0.5 4.49184 0.515375 2.62937 1.02332C2.12063 1.16101 1.65684 1.42958 1.28417 1.80228C0.911512 2.17497 0.642987 2.63879 0.505339 3.14754C-0.0580142 6.45679 -0.276549 11.4993 0.520808 14.6762C0.65847 15.1849 0.927002 15.6487 1.29966 16.0214C1.67232 16.3941 2.13611 16.6626 2.64484 16.8003C4.50731 17.3083 12.0033 17.3083 12.0033 17.3083C12.0033 17.3083 19.4992 17.3083 21.3616 16.8003C21.8703 16.6626 22.3342 16.3941 22.7068 16.0214C23.0795 15.6487 23.3481 15.1849 23.4857 14.6762C24.0799 11.3622 24.263 6.32291 23.4704 3.13217V3.13208Z" fill="#FF0000"/>
<path d="M9.60205 12.5043L15.8204 8.90253L9.60205 5.30078V12.5043Z" fill="white"/>
</g>
<defs>
<clipPath id="clip0_1688_20916">
<rect width="24" height="17" fill="white" transform="translate(0 0.5)"/>
</clipPath>
</defs>
</svg>
